<?xml version="1.0" encoding="iso-8859-1"?>
<!-- Generator: Adobe Illustrator 17.1.0, SVG Export Plug-In . SVG Version: 6.00 Build 0)  -->
<!DOCTYPE svg PUBLIC "-//W3C//DTD SVG 1.0//EN" "http://www.w3.org/TR/2001/REC-SVG-20010904/DTD/svg10.dtd">
<svg version="1.0" xmlns="http://www.w3.org/2000/svg" xmlns:xlink="http://www.w3.org/1999/xlink" x="0px" y="0px" width="110px"
	 height="110px" viewBox="0 0 110 110" style="enable-background:new 0 0 110 110;" xml:space="preserve">
<g id="Artboard">
</g>
<g id="Multicolor">
	<g>
		<circle style="fill:#32BEA6;" cx="55" cy="55" r="55"/>
	</g>
	<g>
		<g>
			<polygon style="fill:#692E19;" points="23,67 39,39 71,39 87,67 			"/>
		</g>
		<g>
			<rect x="35" y="55" style="fill:#CFD3D4;" width="40" height="4"/>
		</g>
		<g>
			
				<rect x="32.502" y="27.709" transform="matrix(0.982 -0.1888 0.1888 0.982 -7.0382 11.4173)" style="fill:#FFFFFF;" width="47.839" height="29.899"/>
		</g>
		<g>
			<rect x="23" y="67" style="fill:#84462D;" width="64" height="20"/>
		</g>
		<g>
			<rect x="31" y="63" style="fill:#FFFFFF;" width="48" height="4"/>
		</g>
		<g>
			<rect x="33" y="59" style="fill:#E2E4E5;" width="44" height="4"/>
		</g>
		<g>
			<path style="fill:#E2E4E5;" d="M69.386,34.078c0.062,0.324-0.15,0.638-0.474,0.7l-12.919,2.483
				c-0.324,0.062-0.638-0.15-0.7-0.474c-0.062-0.324,0.15-0.638,0.474-0.7l12.919-2.483C69.011,33.541,69.324,33.753,69.386,34.078z
				"/>
		</g>
		<g>
			<path style="fill:#E2E4E5;" d="M70.289,38.775c0.062,0.324-0.15,0.638-0.474,0.7l-12.919,2.483
				c-0.324,0.062-0.638-0.15-0.7-0.474c-0.062-0.324,0.15-0.638,0.474-0.7l12.919-2.483C69.914,38.239,70.227,38.451,70.289,38.775z
				"/>
		</g>
		<g>
			<path style="fill:#E2E4E5;" d="M71.192,43.473c0.062,0.324-0.15,0.638-0.474,0.7l-12.919,2.483
				c-0.324,0.062-0.638-0.15-0.7-0.474c-0.062-0.324,0.15-0.638,0.474-0.7l12.919-2.483C70.817,42.937,71.13,43.149,71.192,43.473z"
				/>
		</g>
		<g>
			
				<rect x="38.357" y="35.965" transform="matrix(0.982 -0.1888 0.1888 0.982 -7.3262 9.2568)" style="fill:#9CE5F4;" width="13.156" height="14.252"/>
		</g>
		<g>
			<polygon style="fill:#C9F2F8;" points="50.049,34.852 37.13,37.335 39.82,51.331 43.944,50.538 51.594,42.888 			"/>
		</g>
		<g>
			<polygon style="fill:#9C6144;" points="23,67 23,87 43.643,87 63.643,67 			"/>
		</g>
		<g>
			<circle style="fill:#F3B607;" cx="55" cy="77" r="4"/>
		</g>
		<g>
			<path style="fill:#FACB1B;" d="M55,73c-2.209,0-4,1.791-4,4c0,0.756,0.222,1.455,0.586,2.057l5.471-5.471
				C56.455,73.222,55.756,73,55,73z"/>
		</g>
		<g>
			<path style="fill:#0484AB;" d="M47.18,45.587c0.485-0.842,0.684-1.779,0.24-4.09c-0.229-1.189-1.594-2.485-3.209-2.174
				c-1.615,0.31-2.403,2.02-2.174,3.209c0.442,2.299,1.11,3.062,1.872,3.667c-1.77,0.605-3.308,1.61-4.52,2.885l0.432,2.247
				l12.919-2.483L52.308,46.6C50.749,45.884,48.997,45.517,47.18,45.587z"/>
		</g>
		<g>
			<path style="fill:#059BBF;" d="M47.419,41.497c-0.229-1.189-1.594-2.484-3.209-2.174c-1.615,0.311-2.403,2.02-2.174,3.209
				c0.442,2.299,1.11,3.062,1.872,3.667c-1.77,0.604-3.308,1.61-4.52,2.885l0.432,2.247l4.124-0.792l4.881-4.882
				c-0.541-0.058-1.088-0.091-1.646-0.069C47.665,44.745,47.864,43.808,47.419,41.497z"/>
		</g>
	</g>
</g>
</svg>
